{"asset":{"version":"2.0","generator":"VECTARY"},"nodes":[{"translation":[0,0,0],"scale":[0.001,0.001,0.001],"rotation":[-0.7071067811865475,0,0,0.7071067811865476],"name":"Box","mesh":0},{"translation":[-1.7751462990072993,1.7565207019684714,-2.718472790847381],"scale":[1,1,1],"rotation":[-0.057691518289641475,-0.9382023722340948,-0.19174888280464486,0.2822771039155032],"name":"Camera","camera":0}],"materials":[{"pbrMetallicRoughness":{"baseColorFactor":[0.07592611945626479,0.11129941482466024,1,1],"metallicFactor":0,"roughnessFactor":0.2},"name":"Box material","emissiveFactor":[0,0,0],"alphaMode":"OPAQUE","doubleSided":false}],"meshes":[{"primitives":[{"mode":4,"attributes":{"POSITION":1,"NORMAL":2},"material":0,"indices":0}]}],"accessors":[{"bufferView":0,"byteOffset":0,"componentType":5125,"count":11664,"type":"SCALAR"},{"bufferView":1,"byteOffset":0,"componentType":5126,"count":1946,"max":[500,500,1000],"min":[-500,-500,0],"type":"VEC3"},{"bufferView":2,"byteOffset":0,"componentType":5126,"count":1946,"type":"VEC3"}],"bufferViews":[{"buffer":0,"byteOffset":0,"byteLength":46656,"target":34963},{"buffer":0,"byteOffset":46656,"byteLength":23352,"target":34962},{"buffer":0,"byteOffset":70008,"byteLength":23352,"target":34962}],"cameras":[{"name":"Camera","type":"perspective","extras":{"targetDistance":4.0532004416053535},"perspective":{"aspectRatio":1.3232323232323233,"yfov":0.6108652381980153,"zfar":173.9990166826717,"znear":0.016805162238484727}}],"scene":0,"scenes":[{"nodes":[0,1],"name":"RoundedCube"}],"extensionsUsed":["KHR_texture_transform"],"buffers":[{"byteLength":93360,"uri":"RoundedCube.bin"}]}